<svg width="1324" height="882" viewBox="0 0 1324 882" fill="none" xmlns="http://www.w3.org/2000/svg">
<g clip-path="url(#clip0_0_612)">
<path fill-rule="evenodd" clip-rule="evenodd" d="M-59.2206 1392.7L2015.69 1391.54L2014.92 -4.75091L-60 -3.59265L-59.2206 1392.7Z" fill="#F3F6FF"/>
<mask id="mask0_0_612" style="mask-type:luminance" maskUnits="userSpaceOnUse" x="-60" y="-5" width="2076" height="1398">
<path fill-rule="evenodd" clip-rule="evenodd" d="M-59.9974 -3.58789L2014.92 -4.74615L2015.7 1391.55L-59.218 1392.71L-59.9974 -3.58789Z" fill="white"/>
</mask>
<g mask="url(#mask0_0_612)">
<path fill-rule="evenodd" clip-rule="evenodd" d="M-122.862 384.016C-132.682 346.601 -142.594 308.113 -138.22 269.657C-133.845 231.204 -111.856 192.237 -75.6573 179.461C-44.0861 168.317 -8.25587 179.258 18.8702 199.009C45.9989 218.76 66.2987 246.362 86.999 272.88C240.354 469.367 437.172 627.502 645.798 762.488C854.427 897.474 1075.91 1010.74 1293.51 1130.43C1373.23 1174.28 1453.64 1219.89 1517.57 1284.96C1561.54 1329.7 1597.26 1401.96 1560.21 1452.69C1529.51 1494.74 1468.38 1494.72 1416.79 1490.59C1247.02 1476.99 1077.25 1463.39 907.488 1449.8C850.39 1445.22 791.437 1440.12 740.899 1412.91C670.616 1375.06 628.324 1301.42 581.831 1236.12C507.167 1131.27 413.319 1040.38 306.446 969.407C250.699 932.389 189.8 899.247 150.18 845.043C110.563 790.838 100.402 706.812 148.539 660.158C-5.98336 647.247 -135.944 496.135 -126.901 339.896" fill="#FBFBFB"/>
<path fill-rule="evenodd" clip-rule="evenodd" d="M26.9684 549.9C1.47601 547.417 -23.004 564.544 -35.7453 586.97C-48.4866 609.39 -51.4014 636.14 -51.2735 661.99C-50.6847 780.136 7.1785 890.478 75.942 986.086C144.706 1081.69 225.983 1168.51 284.807 1270.66C333.518 1355.24 371.691 1455.26 456.974 1501.74C548.129 1551.43 670.699 1516.53 735.634 1435.05C800.572 1353.57 811.471 1236.67 778.905 1137.4C746.34 1038.13 675.133 955.404 592.353 892.536" fill="#FBFBFB"/>
<path fill-rule="evenodd" clip-rule="evenodd" d="M730.004 185.028C793.284 281.329 908.359 340.49 1022.73 335.525C1153.56 329.844 1272.02 247.682 1402.83 241.448C1501.03 236.769 1600.44 278.15 1666.84 351.337C1729.13 420.008 1760.58 510.761 1791.61 598.448C1822.63 686.137 1856.66 776.456 1922.36 841.81C1988.07 907.165 2094.67 940.192 2174.72 893.938C2241.45 855.388 2271.82 775.043 2287.81 699.14C2313.65 576.338 2314.63 447.253 2282.1 326.081C2249.58 204.906 2182.58 92.0787 2086.4 12.4878C1994.83 -63.2938 1880.44 -106.775 1764.21 -129.623C1647.98 -152.474 1528.97 -155.84 1410.6 -159.136C1368.87 -160.297 1327.14 -161.46 1285.41 -162.621C1243.84 -163.779 1202.26 -164.937 1160.68 -166.095C1119.11 -167.251 1077.53 -168.409 1035.96 -169.567C994.23 -170.727 952.501 -171.891 910.772 -173.052C871.539 -174.144 831.84 -177.141 792.609 -175.946C770.266 -175.266 747.129 -171.235 727.989 -158.928C711.376 -148.246 699.774 -131.969 692.347 -113.763C683.156 -91.2303 679.52 -66.6088 677.296 -42.4936C674.106 -7.90841 674.734 26.7053 680.953 60.9306C687.438 96.6219 699.445 131.333 716.837 163.111C718.883 166.849 721.004 170.548 723.197 174.2C724.607 176.547 730.002 182.431 730.004 185.028Z" fill="#F3F6FF"/>
<path fill-rule="evenodd" clip-rule="evenodd" d="M-215.886 -115.376C-89.6353 -112.073 16.4844 -17.5945 90.2653 85.8716C164.049 189.335 218.674 307.688 307.255 398.554C459.544 554.775 685.24 605.198 895.371 660.388C1105.5 715.581 1330.17 795.519 1445.18 981.418C1505.31 1078.62 1531.15 1199.34 1613.69 1278.03C1664.86 1326.8 1732.2 1353.6 1797.23 1380.78C1862.26 1407.95 1928.85 1438.14 1975.53 1491.3C2022.21 1544.47 2043.44 1627.01 2006.93 1687.75C1870.99 1722.01 1717.98 1674.47 1624.65 1568.98C1540.71 1474.1 1502.79 1338.52 1399.97 1264.96C1301.77 1194.7 1167.82 1198.6 1063.08 1138.73C938.914 1067.74 875.976 919.827 758.399 838.21C632.671 750.933 460.735 750.524 340.367 655.872C210.061 553.404 171.196 365.038 43.5353 259.236C-5.24221 218.807 -64.0127 193.106 -119.217 162.218C-174.419 131.335 -228.596 92.6764 -258.091 36.3496C-287.586 -19.9744 -285.01 -97.5874 -237.512 -139.542" fill="#F3F6FF"/>
<path fill-rule="evenodd" clip-rule="evenodd" d="M60.493 -235.332C170.846 48.643 418.759 274.294 709.962 355.817C901.836 409.531 1112.57 405.298 1286.56 503.028C1430.96 584.139 1532.51 727.596 1598.03 880.73C1640.95 981.063 1677.79 1096.21 1772.19 1149.73C1895.92 1219.87 2068.64 1152.67 2182.9 1237.61C2214.48 1261.09 2237.96 1294.15 2268.93 1318.43C2299.91 1342.71 2344.37 1357.13 2378.05 1336.85C2405.62 1320.25 2417.41 1283.82 2411.32 1252.01C2405.23 1220.18 2384.13 1192.98 2359.02 1172.8C2214.87 1056.94 1979.82 1159.07 1829.5 1051.5C1763.03 1003.93 1727.32 923.792 1705.38 844.573C1683.44 765.354 1672 682.68 1639.42 607.287C1581.37 472.968 1454.41 371.325 1311.61 344.861C1163.48 317.406 1009.49 343.094 864.085 303.462C736.19 268.601 633.816 194.021 539.833 99.7676C452.86 12.5394 365.886 -74.6888 278.909 -161.92C238.152 -202.794 196.052 -244.604 143.242 -267.446C90.4324 -290.287 23.6866 -290.058 -19.2315 -251.504" fill="#F3F6FF"/>
<path fill-rule="evenodd" clip-rule="evenodd" d="M-159.022 -251.978C-99.4086 -14.2557 34.1248 204.003 217.999 364.264C401.874 524.523 635.253 626.057 876.934 650.935C1052.69 669.025 1243.52 661.895 1380.78 774.181C1498.58 870.558 1540.83 1024.09 1616.71 1156.61C1755.44 1398.88 2045.61 1543.06 2320.43 1506.27C2110.89 1459.65 1919.22 1335.37 1790.07 1162.42C1692.34 1031.53 1631.23 877.043 1548.55 735.974C1465.88 594.906 1352.09 460.587 1196.97 412.141C1075.74 374.283 945.47 393.521 818.757 400.462C692.047 407.399 554.212 397.777 456.919 315.54C335.648 213.039 315.246 31.6854 217.857 -94.1221C95.0633 -252.745 -121.974 -293.594 -319.221 -323.281" fill="#FBFBFB"/>
<path fill-rule="evenodd" clip-rule="evenodd" d="M275.506 -285.788C320.105 -108.936 423.545 52.2469 565.206 165.633C706.867 279.02 885.922 343.945 1066.68 347.466C1179.78 349.668 1294.72 328.774 1405.05 353.955C1507.91 377.43 1601.01 441.935 1659.69 530.391C1742.84 655.742 1761.93 828.272 1882.22 917.794C1955.27 972.158 2053.57 983.162 2142.42 964.483C2231.26 945.804 2312.31 900.346 2388.08 849.933C2317.73 927.392 2191.36 930.517 2099.78 880.531C2008.21 830.547 1946.01 739.301 1898.88 645.599C1851.75 551.898 1815.83 452.01 1758.47 364.322C1701.1 276.63 1616.53 199.789 1513.66 183.655C1350.78 158.11 1203.27 287.182 1039.52 306.263C900.274 322.485 744.46 235.627 719.217 96.4477C708.766 38.8286 720.43 -21.7967 705.06 -78.2821C683.609 -157.124 611.907 -213.888 534.866 -239.146C457.826 -264.401 375.098 -263.383 294.105 -262.112" fill="#F3F6FF"/>
<path fill-rule="evenodd" clip-rule="evenodd" d="M-331.927 31.7268C-276.691 123.829 -174.931 174.561 -79.6794 223.009C15.5751 271.455 115.712 328.591 161.392 425.882C199.672 507.413 192.454 602.412 210.196 690.843C234.371 811.352 307.923 920.979 409.814 988.363C584.39 1103.82 828.102 1095.92 976.936 1243.6C1092.59 1358.36 1115.16 1556.56 1028.32 1694.81C1034.12 1632.55 995.446 1572.59 944.104 1537.59C892.765 1502.59 830.501 1488.33 769.344 1478.32C708.192 1468.3 645.794 1461.65 587.924 1439.32C471.325 1394.33 382.423 1283.08 363.53 1158.53C358.099 1122.72 357.868 1085.39 343.767 1052.07C292.671 931.328 94.4831 926.169 56.6412 800.549C26.7818 701.435 122.041 604.342 116.757 500.885C112.732 422.114 50.8611 358.176 -16.2254 317.732C-83.3093 277.285 -159.16 252.052 -222.479 205.837C-285.801 159.624 -336.729 82.4763 -320.336 5.35827" fill="#F3F6FF"/>
<path fill-rule="evenodd" clip-rule="evenodd" d="M735.731 23.8722C744.726 105.249 782.452 186.433 849.702 232.222C906.056 270.594 977.549 280.756 1045.22 274.228C1138.45 265.24 1226.15 227.259 1312.48 190.608C1398.81 153.955 1487.53 117.688 1581.05 112.45C1674.55 107.212 1775.23 138.464 1830.99 214.411C1916.07 330.269 1873.28 507.642 1960.9 621.55C2027.01 707.503 2154.72 728.901 2254.9 688.71C2355.09 648.516 2428.77 557.677 2471.95 457.969C2519.93 347.171 2534.18 217.202 2488.88 105.261C2429.77 -40.8394 2276.84 -133.331 2121.63 -152.284C1966.42 -171.237 1809.79 -126.784 1666.92 -62.7263C1568.72 -18.7022 1474.49 34.8005 1373.17 70.9094C1271.85 107.018 1160.27 125.006 1056.88 95.4457C953.504 65.8824 861.228 -19.2428 845.977 -126.604C842.13 -153.687 842.985 -182.861 830.472 -207.854C824.141 -220.492 814.729 -229.94 801.295 -234.571C792.058 -237.752 779.27 -239.948 770.329 -234.612C755.251 -225.612 757.429 -198.508 755.432 -183.581C753.456 -168.829 749.378 -154.453 746.374 -139.897C742.95 -123.337 740.054 -106.667 737.858 -89.8962C733.467 -56.3938 731.887 -22.4379 734.54 11.2811C734.871 15.4865 735.269 19.6836 735.731 23.8722Z" fill="#FBFBFB"/>
<path fill-rule="evenodd" clip-rule="evenodd" d="M530.218 1010.16C422.785 967.113 331.424 884.47 277.296 781.378C270.481 768.394 264.065 753.912 266.854 739.492C271.651 714.697 302.082 702.837 326.602 707.894C351.12 712.946 371.455 729.464 392.566 743.033C493.191 807.703 624.704 810.758 721.896 880.585C793.465 932.004 837.7 1013.51 902.189 1073.72C984.23 1150.32 1093.51 1187.94 1193.56 1238.23C1293.6 1288.52 1393.42 1362.25 1422.58 1471.15C1433.6 1512.3 1432.18 1560.21 1404.89 1592.73C1369.19 1635.29 1300.21 1635.23 1253.55 1605.37C1206.88 1575.5 1178.73 1523.65 1158.66 1471.69C1138.58 1419.73 1124.33 1364.96 1096.05 1317.05C1034.19 1212.26 915.874 1156.62 801.276 1117.89C686.678 1079.16 565.198 1049.41 470.05 974.196" fill="#FBFBFB"/>
<path fill-rule="evenodd" clip-rule="evenodd" d="M-209.527 317.796C-142.277 315.435 -72.9104 330.795 -18.2793 370.453C36.3546 410.105 74.0941 476.056 71.0472 543.909C68.8858 592.107 47.4064 636.879 30.265 681.919C13.1265 726.956 0.027158 777.054 14.8925 822.908C36.9578 890.957 109.956 924.539 167.883 965.865C305.222 1063.83 378.396 1245.69 347.629 1412.58C341.994 1443.15 331.668 1475.4 306.729 1493.64C265.87 1523.54 204.018 1499.2 176.713 1456.36C149.408 1413.52 147.594 1359.52 148.265 1308.58C148.937 1257.64 150.788 1204.45 129.156 1158.43C93.8072 1083.22 7.8757 1049.37 -52.7544 992.942C-132.81 918.439 -166.992 797.396 -137.886 691.482C-125.465 646.283 -102.449 603.304 -100.478 556.443C-98.4272 507.77 -119.839 460.467 -150.088 422.51C-180.336 384.551 -219.054 354.549 -257.374 324.936" fill="#FBFBFB"/>
<path fill-rule="evenodd" clip-rule="evenodd" d="M1149.06 838.692C1231.53 877.966 1313.29 926.159 1367.25 1000.36C1415.72 1067.03 1438.4 1150.23 1488.35 1215.78C1563.76 1314.72 1688.36 1358.63 1790.49 1429.02C1815.08 1445.97 1839.25 1465.46 1852.96 1492.14C1866.66 1518.82 1867.37 1554.32 1847.5 1576.7C1831.77 1594.43 1806.08 1600.67 1782.74 1597.35C1759.4 1594.03 1738.02 1582.36 1718.56 1568.93C1637.54 1512.99 1583.55 1426.42 1528.66 1344.29C1473.76 1262.15 1412.07 1178.93 1323.57 1136.08C1229.37 1090.47 1110.07 1093.2 1035.57 1019.26C994.98 978.971 974.727 921.662 935.344 880.161C869.569 810.855 764.187 798.163 686.742 742.486C671.29 731.377 655.508 712.874 662.979 695.268C671.245 675.791 703.562 672.408 724.454 674.471C770.627 679.03 788.536 680.344 822.099 687.784C849.781 693.921 943.717 738.734 963.274 749.723C991.505 765.586 1020.65 779.7 1050.02 793.276C1079.33 806.823 1108.88 819.831 1138.13 833.529C1141.78 835.239 1145.42 836.96 1149.06 838.692Z" fill="#FBFBFB"/>
<path fill-rule="evenodd" clip-rule="evenodd" d="M767.604 35.5093C761.953 16.5815 756.24 -3.13656 759.3 -22.6612C762.357 -42.1859 776.973 -61.3792 796.518 -62.6607C818.223 -64.0859 835.188 -44.268 845.717 -25.058C863.164 6.78725 873.763 42.4873 894.77 72.0575C930.276 122.045 991.741 148.048 1052.4 153.949C1113.05 159.849 1173.89 148.131 1233.63 136.003C1243.22 134.057 1257.06 135.043 1257.9 144.881C1258.4 150.79 1253.2 155.434 1248.42 158.888C1166.98 217.785 1061.38 241.452 962.903 222.878C901.377 211.273 841.346 182.517 801.372 133.901C761.396 85.2878 744.605 15.2284 767.792 -43.4568" fill="#F3F6FF"/>
<path fill-rule="evenodd" clip-rule="evenodd" d="M826.049 585.142C950.42 601.582 1078.56 580.681 1201.07 607.852C1319.19 634.053 1426.75 706.039 1496.64 805.675C1452.92 723.243 1394.28 648.298 1321.49 590.47C1248.7 532.646 1161.49 492.347 1069.7 479.829C972.947 466.635 875.046 484.121 777.572 489.638C735.373 492.026 692.845 491.804 650.887 486.212C609.447 480.689 568.376 469.757 531.092 450.358C526.62 448.028 514.337 438.63 508.851 443.989C505.14 447.608 521.501 457.557 524.723 460.024C541.393 472.776 558.694 484.691 576.53 495.72C612.212 517.779 650.038 536.297 689.281 550.939C728.522 565.579 769.188 576.341 810.519 582.886C815.687 583.704 820.864 584.455 826.049 585.142Z" fill="#F3F6FF"/>
<path fill-rule="evenodd" clip-rule="evenodd" d="M191.652 236.939C210.108 251.542 235.001 265.287 255.763 254.281C270.264 246.594 277.071 228.687 276.417 212.169C275.766 195.651 269.045 180.075 262.433 164.951C240.109 113.887 217.666 62.5998 188.026 15.4803C158.39 -31.642 121.034 -74.8002 74.0328 -104.205C59.8161 -113.097 42.4982 -121.736 25.4175 -116.664C13.5289 -113.135 4.19082 -104.861 6.60225 -91.799C9.11636 -78.167 12.5794 -64.5244 15.3757 -50.912C18.5908 -35.3005 22.5722 -19.8429 27.2894 -4.62318C36.6545 25.5958 48.9128 54.8999 63.7709 82.784C78.6928 110.78 96.2392 137.35 116.139 161.989C136.03 186.622 158.275 209.322 182.555 229.549C185.555 232.052 188.588 234.514 191.652 236.939Z" fill="#F3F6FF"/>
</g>
<path fill-rule="evenodd" clip-rule="evenodd" d="M904.149 764.527C908.146 767.94 912.309 772.168 912.32 777.449C912.331 782.241 908.707 786.44 904.4 788.453C900.094 790.461 895.203 790.698 890.458 790.737C848.459 791.076 806.448 778.318 771.609 754.642C762.155 748.216 752.558 737.886 759.329 725.793C763.939 717.564 774.914 718.289 782.971 718.533C811.082 719.383 838.74 725.93 864.089 738.315C878.448 745.331 891.965 754.125 904.149 764.527Z" fill="#F3F6FF"/>
<path fill-rule="evenodd" clip-rule="evenodd" d="M1284.88 981.706C1301.02 997.307 1317.48 1019.39 1309.24 1040.36C1300.18 1063.42 1269.07 1066.14 1244.77 1062.43C1139.14 1046.3 1042.59 977.968 991.554 883.235C985.417 871.845 979.052 857.578 986.025 845.089C990.776 836.583 997.267 832.776 1006.77 834.27C1031.47 838.155 1056.28 846.385 1079.79 854.746C1104.15 863.409 1127.92 873.737 1150.89 885.621C1173.87 897.51 1196.06 910.955 1217.25 925.85C1238.53 940.823 1258.82 957.254 1277.86 975.038C1280.22 977.24 1282.56 979.462 1284.88 981.706Z" fill="#F3F6FF"/>
<mask id="mask1_0_612" style="mask-type:luminance" maskUnits="userSpaceOnUse" x="234" y="-5" width="1782" height="1398">
<path fill-rule="evenodd" clip-rule="evenodd" d="M234.674 -3.75256L2014.89 -4.74632L2015.67 1391.55L235.453 1392.54L234.674 -3.75256Z" fill="white"/>
</mask>
<g mask="url(#mask1_0_612)">
<path fill-rule="evenodd" clip-rule="evenodd" d="M310.031 90.9784C322.309 194.451 385.107 288.305 469.471 348.38C553.829 408.454 657.955 436.529 761.163 439.216C826.433 440.917 894.88 431.789 948.461 394.126C655.596 348.89 386.48 166.115 234.63 -90.6792C281.89 51.4455 330.831 196.761 423.247 314.118" fill="#FBFBFB"/>
<path fill-rule="evenodd" clip-rule="evenodd" d="M1150.2 668.627C1255.5 689.806 1359.01 732.662 1436.75 807.429C1527 894.242 1574.87 1015.24 1638.15 1123.67C1725.1 1272.65 1844.92 1401.94 1986.37 1499.45C1818.5 1426.54 1641.91 1346.65 1537.15 1195.5C1487.16 1123.38 1456.73 1038.97 1406.87 966.76C1343.75 875.355 1251.81 807.315 1153.07 757.517C1118.03 739.842 1081.97 724.269 1045.4 710.114C1008.91 695.987 819.35 646.441 820.748 643.915C822.136 641.418 891.548 646.219 894.755 646.273C935.335 646.943 975.921 648.199 1016.41 651.142C1056.64 654.069 1096.79 658.662 1136.49 665.985C1141.07 666.828 1145.64 667.708 1150.2 668.627Z" fill="#FBFBFB"/>
<path fill-rule="evenodd" clip-rule="evenodd" d="M1729.6 598.003C1781.57 700.736 1798.9 826.527 1884.05 903.459C1950.23 963.248 2043.18 979.765 2130.89 993.855C2112.36 1057.4 2049.62 1102.15 1984.3 1108.62C1918.99 1115.09 1853.32 1087.45 1804 1043.75C1754.68 1000.04 1720.24 941.516 1694.66 880.51C1669.08 819.503 1651.66 755.403 1631.08 692.498C1610.51 629.595 1586.39 567.08 1549.02 512.623C1526.29 479.504 1498.67 449.854 1467.56 424.641C1436.24 399.265 1401.38 378.351 1364.29 362.814C1354.01 358.511 1343.57 354.624 1332.98 351.167C1327.69 349.439 1322.37 347.819 1317.01 346.312C1312.96 345.169 1306.95 344.683 1303.72 341.856C1311.14 340.367 1320.18 341.571 1327.8 341.84C1336.38 342.143 1344.94 342.702 1353.49 343.507C1370.46 345.112 1387.34 347.697 1404.03 351.209C1437.21 358.194 1469.63 368.852 1500.6 382.758C1531.83 396.779 1561.6 414.105 1589.27 434.358C1616.71 454.446 1642.09 477.424 1664.71 502.916C1687.46 528.558 1707.42 556.75 1723.81 586.948C1725.79 590.605 1727.72 594.29 1729.6 598.003Z" fill="#FBFBFB"/>
</g>
<path fill-rule="evenodd" clip-rule="evenodd" d="M1463.55 245.521C1535.88 254.107 1604.2 288.787 1657.47 338.917C1687.57 367.242 1713.83 401.873 1722.81 442.41C1725.61 455.02 1723.92 472.293 1711.47 475.305C1703.63 477.203 1696.03 471.937 1689.65 466.959C1624.14 415.763 1557.21 362.526 1477.77 338.775C1424.31 322.795 1367.76 321.042 1312.01 321.483C1296.3 321.609 1277.68 321.268 1264.76 310.909C1261.94 308.646 1258.07 305.294 1258.86 301.225C1259.67 297.033 1265.01 294.433 1268.18 292.239C1275.94 286.873 1283.99 281.939 1292.27 277.447C1308.84 268.459 1326.34 261.25 1344.37 255.831C1362.46 250.392 1381.06 246.751 1399.84 244.903C1418.71 243.044 1437.77 243 1456.65 244.785C1458.96 245.002 1461.26 245.249 1463.55 245.521Z" fill="#FBFBFB"/>
<mask id="mask2_0_612" style="mask-type:luminance" maskUnits="userSpaceOnUse" x="434" y="-5" width="1354" height="1398">
<path fill-rule="evenodd" clip-rule="evenodd" d="M434.241 -3.86621L1786.98 -4.62134L1787.76 1391.67L435.021 1392.43L434.241 -3.86621Z" fill="white"/>
</mask>
<g mask="url(#mask2_0_612)">
<path fill-rule="evenodd" clip-rule="evenodd" d="M528.244 65.5544C512.967 45.8947 498.774 24.221 494.746 -0.429705C488.763 -37.0707 508.738 -76.5048 541.665 -93.0609C574.591 -109.62 617.809 -101.959 643.177 -75.0663C665.926 -50.951 673.124 -16.3325 679.373 16.3624C683.035 35.5231 686.698 54.6782 690.358 73.8361C694.797 97.0651 698.804 122.889 686.335 142.919C679.071 154.582 666.678 161.341 653.508 163.728C643.671 165.506 633.499 166.138 624.551 160.94C614.948 155.363 606.923 146.512 598.531 139.318C586.341 128.863 574.641 117.825 563.485 106.248C551.037 93.3251 539.263 79.7374 528.244 65.5544Z" fill="#FBFBFB"/>
</g>
<path fill-rule="evenodd" clip-rule="evenodd" d="M136.211 824.387C103.016 801.277 84.0635 758.896 88.8576 718.479C90.4023 705.423 94.4148 692.318 102.689 682.157C110.959 671.996 123.991 665.225 136.92 666.818C153.772 668.892 166.363 684.244 171.841 700.46C177.317 716.682 177.438 734.166 179.984 751.107C183.002 771.182 189.515 790.712 199.133 808.543C203.91 817.396 209.506 825.98 212.076 835.722C214.649 845.461 213.568 856.953 206.407 863.977C198.991 871.248 186.962 871.746 177.33 867.959C167.697 864.167 159.9 856.871 152.36 849.735C129.169 827.773 105.372 804.859 93.0667 775.262C80.764 745.664 83.0831 707.36 107.082 686.301" fill="#F3F6FF"/>
<mask id="mask3_0_612" style="mask-type:luminance" maskUnits="userSpaceOnUse" x="-60" y="-5" width="2076" height="979">
<path fill-rule="evenodd" clip-rule="evenodd" d="M-59.9974 -3.58789L2014.92 -4.74615L2015.46 972.587L-59.4519 973.745L-59.9974 -3.58789Z" fill="white"/>
</mask>
<g mask="url(#mask3_0_612)">
<path fill-rule="evenodd" clip-rule="evenodd" d="M584.807 968.417C595.649 972.748 608.269 975.933 618.633 970.537C628.172 965.57 633.223 954.106 632.846 943.274C632.463 932.447 627.45 922.26 621.08 913.539C598.939 883.249 560.766 868.38 523.56 865.804C512.595 865.042 499.175 865.941 493.422 877.12C488.735 886.221 497.668 895.87 502.546 902.809C515.678 921.49 532.085 937.711 550.957 950.449C561.573 957.617 572.934 963.668 584.807 968.417Z" fill="#F3F6FF"/>
<path fill-rule="evenodd" clip-rule="evenodd" d="M517.167 270.226C528.036 274.616 539.384 279.357 546.795 288.504C554.207 297.651 555.93 312.649 547.303 320.638C540.332 327.087 529.54 326.769 520.373 324.429C507.974 321.269 496.337 315.101 486.716 306.594C476.671 297.714 468.554 283.007 474.949 271.174C479.772 262.252 491.34 258.917 501.251 260.718C511.159 262.519 519.821 268.348 528.163 274.041" fill="#F3F6FF"/>
<path fill-rule="evenodd" clip-rule="evenodd" d="M972.577 -38.368C1020.6 34.2097 1118.58 68.5597 1200.83 41.6519C1230.93 31.808 1261.8 9.72651 1263.9 -22.1353C1265.97 -53.5363 1238.84 -79.5592 1210.27 -92.1825C1150.98 -118.389 1082.82 -107.289 1019.11 -95.723" fill="#FBFBFB"/>
</g>
<path fill-rule="evenodd" clip-rule="evenodd" d="M1227.05 736.048C1254.22 749.887 1276.08 774.762 1299.61 793.943C1311.08 803.291 1322.01 814.411 1334.19 822.746C1340.38 826.981 1352.23 831.393 1357.96 823.592C1372.02 804.441 1327.36 777.501 1315.46 769.25C1289 750.901 1258.57 744.445 1229.8 731.299C1226.66 729.868 1223.88 734.433 1227.05 736.048Z" fill="#F3F6FF"/>
<path fill-rule="evenodd" clip-rule="evenodd" d="M458.752 408.389C481.615 432.362 503.078 452.565 533.197 467.053C562.735 481.257 593.836 490.86 625.904 497.195C662.33 504.391 699.282 508.207 736.242 511.242C774.315 514.368 813.152 520.802 851.322 519.024C855.789 518.818 858.558 511.952 853.804 509.755C821.919 495.022 786.395 492.216 751.999 487.8C715.267 483.084 678.321 479.357 641.862 472.734C611.659 467.25 581.585 459.721 552.611 449.466C522.477 438.796 487.619 424.869 462.604 404.5C459.927 402.32 456.266 405.782 458.752 408.389Z" fill="#F3F6FF"/>
<path fill-rule="evenodd" clip-rule="evenodd" d="M359.479 330.315C360.695 331.907 362.228 333.503 363.173 335.276C364.112 337.043 366.53 337.382 368.031 336.209C369.569 335.01 369.789 332.639 368.363 331.229C367.35 330.224 366.173 328.295 365.191 326.942C364.169 325.538 362.273 324.698 360.664 325.746C359.314 326.624 358.353 328.83 359.479 330.315Z" fill="#F3F6FF"/>
<path fill-rule="evenodd" clip-rule="evenodd" d="M387.362 353.977C388.332 357.174 389.795 360.072 392.172 362.434C393.011 363.268 393.9 364.033 394.824 364.767C397.301 366.737 399.623 367.554 402.788 367.926C406.246 368.338 409.733 365.314 410.963 362.37C412.388 358.954 411.584 355.215 409.109 352.505C407.501 350.749 405.926 350.071 403.831 349.126C405.771 349.999 402.755 348.532 402.423 348.364C401.565 347.834 400.652 347.413 399.686 347.098C398.831 346.735 398.784 346.719 399.548 347.053C398.278 346.524 397.013 346.019 395.737 345.514C390.842 343.568 385.954 349.326 387.362 353.977Z" fill="#F3F6FF"/>
<path fill-rule="evenodd" clip-rule="evenodd" d="M424.233 378.387C424.233 378.502 424.233 378.616 424.236 378.733C424.517 377.672 424.802 376.614 425.083 375.552C424.24 376.821 423.973 378.27 423.965 379.767C424.308 378.488 424.65 377.208 424.992 375.929C422.132 380.899 424.147 387.639 429.167 390.337C432.72 392.25 437.65 392.008 440.511 388.853C443.409 385.662 444.001 381.241 441.971 377.403C439.29 372.336 432.605 370.312 427.691 373.202C428.958 372.855 430.225 372.508 431.494 372.164C430.006 372.17 428.573 372.445 427.32 373.295C428.371 373.006 429.42 372.721 430.465 372.433C430.352 372.43 430.238 372.43 430.125 372.43C426.954 372.407 424.206 375.181 424.233 378.387Z" fill="#F3F6FF"/>
<path fill-rule="evenodd" clip-rule="evenodd" d="M688.556 202.606C688.636 202.676 688.716 202.746 688.799 202.818C689.516 203.376 690.233 203.937 690.953 204.495C691.802 204.855 692.646 205.215 693.493 205.577C694.436 205.705 695.38 205.831 696.32 205.958C697.787 206.014 699.153 205.706 700.42 205.032C701.322 204.777 702.102 204.316 702.765 203.648C703.565 203.173 704.2 202.53 704.673 201.723C705.331 201.052 705.787 200.265 706.038 199.351C706.704 198.072 707.011 196.692 706.952 195.215C706.941 195.115 706.93 195.014 706.916 194.916C706.909 192.953 706.421 191.127 705.446 189.435C704.488 187.802 703.201 186.504 701.585 185.539C699.905 184.56 698.095 184.064 696.153 184.059C694.673 184.001 693.29 184.318 692.01 184.997C690.674 185.436 689.52 186.185 688.547 187.247C687.212 188.602 686.291 190.197 685.783 192.038C685.27 193.965 685.271 195.889 685.786 197.813C686.297 199.653 687.219 201.25 688.556 202.606Z" fill="#FBFBFB"/>
<path fill-rule="evenodd" clip-rule="evenodd" d="M731.873 232.495C733.079 232.539 734.205 232.284 735.248 231.73C736.335 231.372 737.272 230.763 738.066 229.902C738.923 229.101 739.526 228.151 739.879 227.053C740.426 225.997 740.677 224.863 740.63 223.646C740.527 222.861 740.421 222.076 740.316 221.294C739.9 219.795 739.147 218.494 738.059 217.389C737.469 216.928 736.88 216.468 736.287 216.008C734.92 215.21 733.446 214.808 731.863 214.801C730.657 214.757 729.528 215.014 728.488 215.568C727.401 215.923 726.461 216.535 725.667 217.396C724.813 218.198 724.21 219.148 723.857 220.245C723.307 221.301 723.059 222.435 723.104 223.655C723.209 224.437 723.312 225.222 723.42 226.004C723.836 227.503 724.587 228.804 725.674 229.909C726.267 230.37 726.859 230.83 727.449 231.291C728.816 232.089 730.29 232.493 731.873 232.495Z" fill="#FBFBFB"/>
<path fill-rule="evenodd" clip-rule="evenodd" d="M758.308 246.398C758.981 246.426 759.611 246.283 760.189 245.973C760.795 245.771 761.321 245.433 761.763 244.953C762.239 244.506 762.576 243.978 762.772 243.366C763.076 242.776 763.217 242.142 763.189 241.464C763.133 241.028 763.072 240.593 763.016 240.154C762.783 239.319 762.365 238.594 761.759 237.98C761.43 237.723 761.1 237.466 760.768 237.209C760.007 236.763 759.185 236.54 758.303 236.538C757.633 236.513 757.003 236.656 756.422 236.963C755.816 237.162 755.293 237.5 754.851 237.983C754.375 238.428 754.038 238.958 753.842 239.573C753.535 240.16 753.395 240.791 753.42 241.469C753.481 241.908 753.539 242.346 753.598 242.782C753.831 243.617 754.249 244.342 754.855 244.956C755.184 245.213 755.514 245.47 755.843 245.727C756.607 246.173 757.426 246.396 758.308 246.398Z" fill="#FBFBFB"/>
<path fill-rule="evenodd" clip-rule="evenodd" d="M225.683 894.825C226.785 894.863 227.811 894.631 228.765 894.127C229.755 893.803 230.615 893.241 231.337 892.456C232.119 891.721 232.67 890.858 232.993 889.852C233.493 888.892 233.722 887.855 233.68 886.741C233.585 886.026 233.488 885.309 233.394 884.597C233.011 883.226 232.324 882.039 231.331 881.032C230.791 880.61 230.254 880.189 229.711 879.77C228.463 879.039 227.119 878.674 225.674 878.669C224.571 878.628 223.544 878.861 222.59 879.367C221.6 879.694 220.74 880.25 220.018 881.038C219.236 881.77 218.686 882.639 218.362 883.639C217.862 884.602 217.633 885.639 217.675 886.75C217.77 887.468 217.867 888.183 217.961 888.9C218.344 890.266 219.028 891.455 220.025 892.462C220.561 892.881 221.101 893.302 221.644 893.724C222.892 894.455 224.237 894.82 225.683 894.825Z" fill="#F3F6FF"/>
<path fill-rule="evenodd" clip-rule="evenodd" d="M529.155 643.221C529.081 644.103 529.678 647.281 529.309 645.078C528.945 642.903 529.575 646.857 529.647 647.231C529.646 645.463 529.645 643.695 529.644 641.928C529.642 641.944 529.636 641.961 529.633 641.981C528.742 646.276 530.137 652.148 534.556 654.17C541.308 657.258 548.528 659.477 555.501 662.009C563.426 664.892 576.822 671.232 581.469 660.104C583.108 656.173 582.079 651.801 579.059 648.828C576.678 646.49 574.359 645.441 571.304 644.233C568.266 643.031 565.164 642.022 562.079 640.966C555.712 638.788 549.303 636.088 542.784 634.433C538.423 633.324 532.85 635.112 530.711 639.4C531.219 638.355 531.966 637.553 532.953 636.997C532.046 637.489 531.322 638.162 530.774 639.017C529.774 640.327 529.293 641.514 529.155 643.221Z" fill="#FBFBFB"/>
<path fill-rule="evenodd" clip-rule="evenodd" d="M468.398 611.851C467.586 612.912 467.332 614.278 467.366 615.602C467.628 614.613 467.896 613.619 468.161 612.63C466.317 615.225 467.243 618.375 468.533 620.915C469.273 622.373 470.671 623.453 471.922 624.424C473.178 625.406 473.048 625.241 474.891 626.008C475.074 626.083 475.251 626.156 475.436 626.226C476.125 626.479 476.723 626.566 477.475 626.666C479.775 626.977 482.148 626.75 484.2 625.503C486.474 624.117 487.916 621.656 487.915 618.955C487.909 617.587 487.568 616.311 486.886 615.127C486.219 613.991 485.322 613.084 484.193 612.409C483.233 611.694 482.026 611.455 480.939 611C481.572 611.268 482.209 611.538 482.843 611.812C481.52 611.234 480.031 610.571 478.576 610.301C478.18 610.225 477.79 610.128 477.403 610.008C476.423 609.707 475.388 609.674 474.373 609.546C474.998 609.632 475.626 609.719 476.252 609.802C476.055 609.774 475.861 609.738 475.662 609.707C475.347 609.641 475.029 609.599 474.708 609.574C474.116 609.412 473.521 609.413 472.926 609.575C472.32 609.575 471.759 609.732 471.236 610.037C470.865 610.121 470.539 610.28 470.251 610.515C471.236 610.243 472.215 609.975 473.197 609.709C473.131 609.7 473.067 609.692 473.004 609.684C473.504 609.751 474.005 609.817 474.506 609.884C473.9 609.795 473.194 609.592 472.636 609.617C472.057 609.642 471.421 609.732 470.876 609.925C470.337 610.054 469.867 610.305 469.463 610.674C469.012 610.971 468.655 611.365 468.398 611.851Z" fill="#FBFBFB"/>
<mask id="mask4_0_612" style="mask-type:luminance" maskUnits="userSpaceOnUse" x="395" y="568" width="939" height="825">
<path fill-rule="evenodd" clip-rule="evenodd" d="M395.054 569.158L1333 568.635L1333.46 1391.93L395.513 1392.45L395.054 569.158Z" fill="white"/>
</mask>
<g mask="url(#mask4_0_612)">
<path fill-rule="evenodd" clip-rule="evenodd" d="M397.001 580.56C397.366 580.858 397.729 581.157 398.097 581.456C398.271 581.601 398.446 581.743 398.623 581.883C398.717 581.964 398.811 582.042 398.908 582.117C399.16 582.326 399.417 582.527 399.677 582.72C399.929 582.926 400.187 583.127 400.45 583.32C400.834 583.549 401.241 583.741 401.637 583.956C401.853 584.07 402.066 584.19 402.282 584.302C403.289 584.815 404.399 585.225 405.552 585.166C406.103 585.093 406.65 585.017 407.201 584.941C407.848 584.787 408.429 584.516 408.946 584.128C407.563 584.31 406.18 584.495 404.797 584.677C404.965 584.711 405.129 584.747 405.297 584.78C405.577 584.839 405.834 584.867 406.139 584.906C406.971 585.017 406.739 585.025 407.569 584.91C408.23 584.882 408.85 584.681 409.422 584.312C409.757 584.052 410.094 583.789 410.429 583.526C410.437 583.518 410.445 583.512 410.451 583.504C410.603 583.353 410.608 583.317 410.827 583.029C411.031 582.764 411.081 582.727 411.189 582.546C411.197 582.532 411.203 582.521 411.211 582.507C411.377 582.104 411.545 581.708 411.711 581.306C411.772 580.859 411.83 580.415 411.89 579.968C411.829 579.524 411.771 579.074 411.71 578.63C411.699 578.6 411.69 578.566 411.679 578.533C411.554 578.103 411.314 577.62 411.12 577.209C411.039 577.036 410.956 576.86 410.873 576.687C411.056 578.083 411.237 579.48 411.42 580.876C411.581 580.515 411.658 580.133 411.647 579.728C411.832 578.896 411.792 578.061 411.535 577.229C411.454 576.933 411.341 576.645 411.191 576.377C410.936 575.587 410.504 574.908 409.89 574.334C409.743 574.166 409.593 573.996 409.444 573.831C409.131 573.479 408.832 573.105 408.506 572.77C407.869 572.117 406.939 571.545 406.183 570.968C405.79 570.669 405.4 570.368 405.007 570.069C404.249 569.581 403.43 569.316 402.55 569.28C401.67 569.08 400.79 569.119 399.911 569.399C399.385 569.626 398.86 569.849 398.331 570.073C397.563 570.492 396.943 571.065 396.476 571.794C396.07 572.211 395.785 572.699 395.627 573.266C395.213 574.065 395.025 574.92 395.062 575.839C395.14 576.431 395.217 577.023 395.298 577.615C395.611 578.743 396.179 579.728 397.001 580.56Z" fill="#FBFBFB"/>
</g>
<path fill-rule="evenodd" clip-rule="evenodd" d="M143.398 735.912C149.407 725.978 141.771 710.852 130.281 709.917C118.791 708.983 108.858 722.683 113.213 733.457C117.571 744.229 134.164 747.004 141.725 738.222" fill="#FBFBFB"/>
<path fill-rule="evenodd" clip-rule="evenodd" d="M159.053 53.3317C168.533 61.3188 165.754 78.5507 155.322 85.2168C144.89 91.8829 130.317 88.889 121.138 80.5499C111.963 72.2108 107.488 59.6885 105.945 47.321C104.903 38.9606 105.313 29.6806 110.707 23.2518C119.51 12.7552 137.447 15.8142 146.831 25.7813C156.221 35.7512 159.314 49.9945 162.03 63.4728" fill="#FBFBFB"/>
<path fill-rule="evenodd" clip-rule="evenodd" d="M1021.35 530.533C1029.52 533.438 1039.18 540.222 1036.39 548.498C1034.71 553.495 1029.16 555.849 1024.17 557.416C1001.73 564.452 978.06 567.436 954.591 566.352C942.996 565.816 931.445 564.29 920.111 561.769C910.112 559.546 897.34 557.35 889.866 549.655C879.685 539.171 882.89 521.694 897.39 518.717C912.453 515.623 928.799 519.263 944.046 519.006C970.48 518.562 996.305 521.625 1021.35 530.533Z" fill="#FBFBFB"/>
</g>
<defs>
<clipPath id="clip0_0_612">
<rect width="1444" height="882" fill="white" transform="translate(-60)"/>
</clipPath>
</defs>
</svg>
