<svg width="1440" height="676" viewBox="0 0 1440 676" fill="none" xmlns="http://www.w3.org/2000/svg">
<g clip-path="url(#clip0_0_481)">
<path fill-rule="evenodd" clip-rule="evenodd" d="M0.779439 1392.7L2075.69 1391.54L2074.92 -4.75103L0 -3.59277L0.779439 1392.7Z" fill="#F3F6FF"/>
<mask id="mask0_0_481" style="mask-type:luminance" maskUnits="userSpaceOnUse" x="0" y="-5" width="2076" height="1398">
<path fill-rule="evenodd" clip-rule="evenodd" d="M0.00256348 -3.58813L2074.92 -4.74639L2075.7 1391.55L0.782002 1392.7L0.00256348 -3.58813Z" fill="white"/>
</mask>
<g mask="url(#mask0_0_481)">
<path fill-rule="evenodd" clip-rule="evenodd" d="M-62.8623 384.016C-72.6823 346.601 -82.5942 308.113 -78.2196 269.657C-73.845 231.203 -51.8561 192.237 -15.6573 179.46C15.9139 168.317 51.7441 179.258 78.8702 199.009C105.999 218.76 126.299 246.361 146.999 272.879C300.354 469.367 497.172 627.502 705.798 762.488C914.427 897.474 1135.91 1010.74 1353.51 1130.43C1433.23 1174.28 1513.64 1219.89 1577.57 1284.96C1621.54 1329.7 1657.26 1401.96 1620.21 1452.69C1589.51 1494.74 1528.38 1494.72 1476.79 1490.59C1307.02 1476.99 1137.25 1463.39 967.488 1449.8C910.39 1445.22 851.437 1440.12 800.899 1412.91C730.616 1375.06 688.324 1301.42 641.831 1236.12C567.167 1131.27 473.319 1040.38 366.446 969.407C310.699 932.389 249.8 899.247 210.18 845.042C170.563 790.838 160.402 706.812 208.539 660.157C54.0166 647.247 -75.9436 496.134 -66.9012 339.895" fill="#FBFBFB"/>
<path fill-rule="evenodd" clip-rule="evenodd" d="M86.9684 549.9C61.476 547.417 36.996 564.544 24.2547 586.97C11.5134 609.39 8.5986 636.139 8.72645 661.99C9.31528 780.136 67.1785 890.478 135.942 986.085C204.706 1081.69 285.983 1168.51 344.807 1270.66C393.518 1355.24 431.691 1455.26 516.974 1501.74C608.129 1551.43 730.699 1516.53 795.634 1435.05C860.572 1353.57 871.471 1236.67 838.905 1137.4C806.34 1038.13 735.133 955.404 652.353 892.536" fill="#FBFBFB"/>
<path fill-rule="evenodd" clip-rule="evenodd" d="M790.004 185.028C853.284 281.328 968.359 340.489 1082.73 335.525C1213.56 329.844 1332.02 247.681 1462.83 241.448C1561.03 236.769 1660.44 278.15 1726.84 351.337C1789.13 420.008 1820.58 510.761 1851.61 598.447C1882.63 686.137 1916.66 776.455 1982.36 841.81C2048.07 907.164 2154.67 940.192 2234.72 893.938C2301.45 855.388 2331.82 775.042 2347.81 699.139C2373.65 576.338 2374.63 447.253 2342.1 326.081C2309.58 204.906 2242.58 92.0784 2146.4 12.4875C2054.83 -63.2941 1940.44 -106.775 1824.21 -129.623C1707.98 -152.474 1588.97 -155.84 1470.6 -159.136C1428.87 -160.297 1387.14 -161.461 1345.41 -162.621C1303.84 -163.779 1262.26 -164.937 1220.68 -166.095C1179.11 -167.251 1137.53 -168.409 1095.96 -169.567C1054.23 -170.728 1012.5 -171.891 970.772 -173.052C931.539 -174.144 891.84 -177.141 852.609 -175.946C830.266 -175.266 807.129 -171.235 787.989 -158.928C771.376 -148.246 759.774 -131.97 752.347 -113.763C743.156 -91.2306 739.52 -66.6091 737.296 -42.4938C734.106 -7.90866 734.734 26.7051 740.953 60.9304C747.438 96.6216 759.445 131.332 776.837 163.111C778.883 166.849 781.004 170.548 783.197 174.199C784.607 176.547 790.002 182.431 790.004 185.028Z" fill="#F3F6FF"/>
<path fill-rule="evenodd" clip-rule="evenodd" d="M-155.886 -115.376C-29.6353 -112.073 76.4844 -17.5947 150.265 85.8713C224.049 189.335 278.674 307.687 367.255 398.553C519.544 554.775 745.24 605.198 955.371 660.388C1165.5 715.58 1390.17 795.518 1505.18 981.418C1565.31 1078.62 1591.15 1199.34 1673.69 1278.03C1724.86 1326.8 1792.2 1353.6 1857.23 1380.78C1922.26 1407.95 1988.85 1438.14 2035.53 1491.3C2082.21 1544.47 2103.44 1627.01 2066.93 1687.75C1930.99 1722.01 1777.98 1674.47 1684.65 1568.98C1600.71 1474.1 1562.79 1338.52 1459.97 1264.96C1361.77 1194.7 1227.82 1198.6 1123.08 1138.73C998.914 1067.74 935.976 919.827 818.399 838.209C692.671 750.933 520.735 750.524 400.367 655.872C270.061 553.404 231.196 365.037 103.535 259.236C54.7578 218.807 -4.01266 193.106 -59.2171 162.218C-114.419 131.334 -168.596 92.6761 -198.091 36.3494C-227.586 -19.9746 -225.01 -97.5876 -177.512 -139.542" fill="#F3F6FF"/>
<path fill-rule="evenodd" clip-rule="evenodd" d="M120.493 -235.333C230.846 48.6426 478.759 274.293 769.962 355.817C961.836 409.531 1172.57 405.297 1346.56 503.027C1490.96 584.138 1592.51 727.595 1658.03 880.729C1700.95 981.063 1737.79 1096.21 1832.19 1149.73C1955.92 1219.87 2128.64 1152.67 2242.9 1237.61C2274.48 1261.09 2297.96 1294.15 2328.93 1318.43C2359.91 1342.71 2404.37 1357.13 2438.05 1336.85C2465.62 1320.25 2477.41 1283.82 2471.32 1252.01C2465.23 1220.18 2444.13 1192.98 2419.02 1172.8C2274.87 1056.94 2039.82 1159.07 1889.5 1051.5C1823.03 1003.93 1787.32 923.792 1765.38 844.573C1743.44 765.354 1732 682.68 1699.42 607.287C1641.37 472.968 1514.41 371.324 1371.61 344.861C1223.48 317.406 1069.49 343.094 924.085 303.462C796.19 268.601 693.816 194.02 599.833 99.7672C512.86 12.5391 425.886 -74.6891 338.909 -161.92C298.152 -202.795 256.052 -244.604 203.242 -267.446C150.432 -290.288 83.6866 -290.058 40.7685 -251.505" fill="#F3F6FF"/>
<path fill-rule="evenodd" clip-rule="evenodd" d="M-99.0222 -251.978C-39.4086 -14.256 94.1248 204.002 277.999 364.264C461.874 524.523 695.253 626.057 936.934 650.935C1112.69 669.025 1303.52 661.895 1440.78 774.181C1558.58 870.557 1600.83 1024.09 1676.71 1156.61C1815.44 1398.88 2105.61 1543.06 2380.43 1506.27C2170.89 1459.65 1979.22 1335.37 1850.07 1162.42C1752.34 1031.53 1691.23 877.043 1608.55 735.974C1525.88 594.905 1412.09 460.587 1256.97 412.141C1135.74 374.282 1005.47 393.521 878.757 400.461C752.047 407.399 614.212 397.777 516.919 315.54C395.648 213.038 375.246 31.6852 277.857 -94.1223C155.063 -252.745 -61.9736 -293.594 -259.221 -323.281" fill="#FBFBFB"/>
<path fill-rule="evenodd" clip-rule="evenodd" d="M335.506 -285.789C380.105 -108.937 483.545 52.2468 625.206 165.633C766.867 279.02 945.922 343.945 1126.68 347.466C1239.78 349.668 1354.72 328.774 1465.05 353.955C1567.91 377.43 1661.01 441.935 1719.69 530.391C1802.84 655.742 1821.93 828.272 1942.22 917.794C2015.27 972.158 2113.57 983.162 2202.42 964.483C2291.26 945.804 2372.31 900.346 2448.08 849.933C2377.73 927.392 2251.36 930.517 2159.78 880.531C2068.21 830.547 2006.01 739.3 1958.88 645.599C1911.75 551.898 1875.83 452.01 1818.47 364.322C1761.1 276.63 1676.53 199.789 1573.66 183.655C1410.78 158.11 1263.27 287.182 1099.52 306.263C960.274 322.485 804.46 235.627 779.217 96.4476C768.766 38.8284 780.43 -21.7968 765.06 -78.2822C743.609 -157.125 671.907 -213.889 594.866 -239.146C517.826 -264.401 435.098 -263.383 354.105 -262.112" fill="#F3F6FF"/>
<path fill-rule="evenodd" clip-rule="evenodd" d="M-271.927 31.7265C-216.691 123.829 -114.931 174.561 -19.6794 223.009C75.5751 271.455 175.712 328.591 221.392 425.882C259.672 507.412 252.454 602.412 270.196 690.843C294.371 811.352 367.923 920.979 469.814 988.363C644.39 1103.82 888.102 1095.91 1036.94 1243.6C1152.59 1358.36 1175.16 1556.56 1088.32 1694.81C1094.12 1632.55 1055.45 1572.59 1004.1 1537.59C952.765 1502.59 890.501 1488.33 829.344 1478.32C768.192 1468.3 705.794 1461.65 647.924 1439.32C531.325 1394.33 442.423 1283.08 423.53 1158.53C418.099 1122.72 417.868 1085.39 403.767 1052.07C352.671 931.328 154.483 926.169 116.641 800.549C86.7818 701.434 182.041 604.342 176.757 500.885C172.732 422.114 110.861 358.176 43.7746 317.732C-23.3093 277.285 -99.1602 252.052 -162.479 205.836C-225.801 159.624 -276.729 82.4761 -260.336 5.35802" fill="#F3F6FF"/>
<path fill-rule="evenodd" clip-rule="evenodd" d="M795.731 23.8719C804.726 105.248 842.452 186.433 909.702 232.222C966.056 270.594 1037.55 280.755 1105.22 274.228C1198.45 265.239 1286.15 227.259 1372.48 190.608C1458.81 153.955 1547.53 117.688 1641.05 112.45C1734.55 107.212 1835.23 138.463 1890.99 214.41C1976.07 330.269 1933.28 507.642 2020.9 621.55C2087.01 707.502 2214.72 728.901 2314.9 688.71C2415.09 648.516 2488.77 557.676 2531.95 457.968C2579.93 347.171 2594.18 217.201 2548.88 105.261C2489.77 -40.8397 2336.84 -133.331 2181.63 -152.285C2026.42 -171.238 1869.79 -126.785 1726.92 -62.7267C1628.72 -18.7026 1534.49 34.8002 1433.17 70.909C1331.85 107.018 1220.27 125.006 1116.88 95.4453C1013.5 65.882 921.228 -19.2431 905.977 -126.604C902.13 -153.687 902.985 -182.862 890.472 -207.854C884.141 -220.493 874.729 -229.94 861.295 -234.571C852.058 -237.752 839.27 -239.949 830.329 -234.613C815.251 -225.612 817.429 -198.508 815.432 -183.581C813.456 -168.829 809.378 -154.454 806.374 -139.897C802.95 -123.338 800.054 -106.667 797.858 -89.8965C793.467 -56.3942 791.887 -22.4383 794.54 11.2807C794.871 15.4862 795.269 19.6832 795.731 23.8719Z" fill="#FBFBFB"/>
<path fill-rule="evenodd" clip-rule="evenodd" d="M-149.527 317.796C-82.2765 315.435 -12.9104 330.795 41.7207 370.452C96.3546 410.104 134.094 476.055 131.047 543.909C128.886 592.107 107.406 636.879 90.265 681.919C73.1265 726.956 60.0272 777.054 74.8925 822.908C96.9578 890.957 169.956 924.539 227.883 965.865C365.222 1063.83 438.396 1245.69 407.629 1412.58C401.994 1443.15 391.668 1475.4 366.729 1493.64C325.87 1523.54 264.018 1499.2 236.713 1456.36C209.408 1413.52 207.594 1359.52 208.265 1308.58C208.937 1257.64 210.788 1204.45 189.156 1158.43C153.807 1083.22 67.8757 1049.37 7.24561 992.942C-72.8103 918.439 -106.992 797.396 -77.8863 691.482C-65.4648 646.283 -42.449 603.303 -40.4777 556.443C-38.4272 507.769 -59.839 460.467 -90.0876 422.51C-120.336 384.55 -159.054 354.549 -197.374 324.935" fill="#FBFBFB"/>
<path fill-rule="evenodd" clip-rule="evenodd" d="M1209.06 838.692C1291.53 877.965 1373.29 926.159 1427.25 1000.36C1475.72 1067.03 1498.4 1150.23 1548.35 1215.78C1623.76 1314.72 1748.36 1358.63 1850.49 1429.02C1875.08 1445.97 1899.25 1465.46 1912.96 1492.14C1926.66 1518.82 1927.37 1554.32 1907.5 1576.7C1891.77 1594.43 1866.08 1600.67 1842.74 1597.35C1819.4 1594.03 1798.02 1582.36 1778.56 1568.93C1697.54 1512.99 1643.55 1426.42 1588.66 1344.29C1533.76 1262.15 1472.07 1178.93 1383.57 1136.08C1289.37 1090.47 1170.07 1093.2 1095.57 1019.26C1054.98 978.971 1034.73 921.662 995.344 880.161C929.569 810.855 824.187 798.163 746.742 742.485C731.29 731.377 715.508 712.874 722.979 695.268C731.245 675.79 763.562 672.407 784.454 674.471C830.627 679.03 848.536 680.344 882.099 687.784C909.781 693.921 1003.72 738.734 1023.27 749.723C1051.5 765.586 1080.65 779.7 1110.02 793.275C1139.33 806.823 1168.88 819.831 1198.13 833.529C1201.78 835.239 1205.42 836.96 1209.06 838.692Z" fill="#FBFBFB"/>
<path fill-rule="evenodd" clip-rule="evenodd" d="M827.604 35.5089C821.953 16.5811 816.24 -3.13692 819.3 -22.6616C822.357 -42.1863 836.973 -61.3795 856.518 -62.6611C878.223 -64.0862 895.188 -44.2683 905.717 -25.0584C923.164 6.78688 933.763 42.487 954.77 72.0571C990.276 122.044 1051.74 148.048 1112.4 153.948C1173.05 159.849 1233.89 148.131 1293.63 136.003C1303.22 134.056 1317.06 135.043 1317.9 144.881C1318.4 150.789 1313.2 155.434 1308.42 158.888C1226.98 217.784 1121.38 241.452 1022.9 222.877C961.377 211.272 901.346 182.517 861.372 133.901C821.396 85.2875 804.605 15.228 827.792 -43.4572" fill="#F3F6FF"/>
<path fill-rule="evenodd" clip-rule="evenodd" d="M886.049 585.142C1010.42 601.582 1138.56 580.681 1261.07 607.851C1379.19 634.052 1486.75 706.038 1556.64 805.675C1512.92 723.243 1454.28 648.297 1381.49 590.47C1308.7 532.645 1221.49 492.347 1129.7 479.829C1032.95 466.635 935.046 484.121 837.572 489.637C795.373 492.026 752.845 491.804 710.887 486.212C669.447 480.689 628.376 469.756 591.092 450.358C586.62 448.028 574.337 438.63 568.851 443.989C565.14 447.607 581.501 457.557 584.723 460.023C601.393 472.776 618.694 484.691 636.53 495.72C672.212 517.778 710.038 536.297 749.281 550.939C788.522 565.578 829.188 576.341 870.519 582.886C875.687 583.704 880.864 584.455 886.049 585.142Z" fill="#F3F6FF"/>
<path fill-rule="evenodd" clip-rule="evenodd" d="M251.652 236.939C270.108 251.542 295.001 265.287 315.763 254.281C330.264 246.593 337.071 228.686 336.417 212.168C335.766 195.651 329.045 180.075 322.433 164.951C300.109 113.887 277.666 62.5996 248.026 15.48C218.39 -31.6423 181.034 -74.8004 134.033 -104.205C119.816 -113.097 102.498 -121.736 85.4175 -116.664C73.5289 -113.136 64.1908 -104.862 66.6023 -91.7993C69.1164 -78.1672 72.5794 -64.5246 75.3757 -50.9123C78.5908 -35.3007 82.5722 -19.8432 87.2894 -4.62343C96.6545 25.5955 108.913 54.8997 123.771 82.7837C138.693 110.779 156.239 137.35 176.139 161.989C196.03 186.622 218.275 209.322 242.555 229.549C245.555 232.052 248.588 234.514 251.652 236.939Z" fill="#F3F6FF"/>
</g>
<mask id="mask1_0_481" style="mask-type:luminance" maskUnits="userSpaceOnUse" x="294" y="-5" width="1782" height="1398">
<path fill-rule="evenodd" clip-rule="evenodd" d="M294.674 -3.75269L2074.89 -4.74644L2075.67 1391.55L295.453 1392.54L294.674 -3.75269Z" fill="white"/>
</mask>
<g mask="url(#mask1_0_481)">
<path fill-rule="evenodd" clip-rule="evenodd" d="M370.031 90.9784C382.309 194.451 445.107 288.305 529.471 348.38C613.829 408.454 717.955 436.529 821.163 439.216C886.433 440.917 954.88 431.789 1008.46 394.126C715.596 348.89 446.48 166.115 294.63 -90.6792C341.89 51.4455 390.831 196.761 483.247 314.118" fill="#FBFBFB"/>
<path fill-rule="evenodd" clip-rule="evenodd" d="M1210.2 668.627C1315.5 689.806 1419.01 732.662 1496.75 807.429C1587 894.242 1634.87 1015.24 1698.15 1123.67C1785.1 1272.65 1904.92 1401.94 2046.37 1499.45C1878.5 1426.54 1701.91 1346.65 1597.15 1195.5C1547.16 1123.38 1516.73 1038.97 1466.87 966.76C1403.75 875.355 1311.81 807.315 1213.07 757.516C1178.03 739.842 1141.97 724.269 1105.4 710.114C1068.91 695.987 879.35 646.44 880.748 643.915C882.136 641.418 951.548 646.219 954.755 646.273C995.335 646.943 1035.92 648.199 1076.41 651.142C1116.64 654.069 1156.79 658.662 1196.49 665.985C1201.07 666.828 1205.64 667.708 1210.2 668.627Z" fill="#FBFBFB"/>
<path fill-rule="evenodd" clip-rule="evenodd" d="M1789.6 598.003C1841.57 700.736 1858.9 826.526 1944.05 903.459C2010.23 963.248 2103.18 979.765 2190.89 993.854C2172.36 1057.4 2109.62 1102.15 2044.3 1108.62C1978.99 1115.09 1913.32 1087.45 1864 1043.74C1814.68 1000.04 1780.24 941.516 1754.66 880.51C1729.08 819.503 1711.66 755.403 1691.08 692.498C1670.51 629.595 1646.39 567.08 1609.02 512.623C1586.29 479.504 1558.67 449.854 1527.56 424.64C1496.24 399.265 1461.38 378.351 1424.29 362.814C1414.01 358.511 1403.57 354.624 1392.98 351.167C1387.69 349.439 1382.37 347.819 1377.01 346.311C1372.96 345.169 1366.95 344.683 1363.72 341.856C1371.14 340.366 1380.18 341.571 1387.8 341.84C1396.38 342.142 1404.94 342.702 1413.49 343.507C1430.46 345.111 1447.34 347.696 1464.03 351.209C1497.21 358.194 1529.63 368.852 1560.6 382.758C1591.83 396.779 1621.6 414.105 1649.27 434.358C1676.71 454.446 1702.09 477.423 1724.71 502.915C1747.46 528.558 1767.42 556.749 1783.81 586.948C1785.79 590.605 1787.72 594.29 1789.6 598.003Z" fill="#FBFBFB"/>
</g>
<path fill-rule="evenodd" clip-rule="evenodd" d="M1523.55 245.521C1595.88 254.107 1664.2 288.786 1717.47 338.917C1747.57 367.242 1773.83 401.872 1782.81 442.41C1785.61 455.02 1783.92 472.293 1771.47 475.305C1763.63 477.203 1756.03 471.937 1749.65 466.959C1684.14 415.763 1617.21 362.526 1537.77 338.774C1484.31 322.794 1427.76 321.042 1372.01 321.483C1356.3 321.609 1337.68 321.268 1324.76 310.909C1321.94 308.646 1318.07 305.294 1318.86 301.225C1319.67 297.033 1325.01 294.432 1328.18 292.239C1335.94 286.872 1343.99 281.939 1352.27 277.447C1368.84 268.459 1386.34 261.25 1404.37 255.831C1422.46 250.392 1441.06 246.751 1459.84 244.903C1478.71 243.044 1497.77 243 1516.65 244.785C1518.96 245.002 1521.26 245.249 1523.55 245.521Z" fill="#FBFBFB"/>
<mask id="mask2_0_481" style="mask-type:luminance" maskUnits="userSpaceOnUse" x="494" y="-5" width="1354" height="1398">
<path fill-rule="evenodd" clip-rule="evenodd" d="M494.241 -3.86646L1846.98 -4.62158L1847.76 1391.67L495.021 1392.43L494.241 -3.86646Z" fill="white"/>
</mask>
<g mask="url(#mask2_0_481)">
<path fill-rule="evenodd" clip-rule="evenodd" d="M588.244 65.5543C572.967 45.8946 558.774 24.2209 554.746 -0.429827C548.763 -37.0708 568.738 -76.5049 601.665 -93.061C634.591 -109.62 677.809 -101.959 703.177 -75.0664C725.926 -50.9511 733.124 -16.3326 739.373 16.3623C743.035 35.523 746.698 54.6781 750.358 73.836C754.797 97.065 758.804 122.889 746.335 142.918C739.071 154.582 726.678 161.341 713.508 163.728C703.671 165.506 693.499 166.138 684.551 160.94C674.948 155.363 666.923 146.512 658.531 139.318C646.341 128.863 634.641 117.825 623.485 106.248C611.037 93.325 599.263 79.7373 588.244 65.5543Z" fill="#FBFBFB"/>
</g>
<path fill-rule="evenodd" clip-rule="evenodd" d="M196.211 824.387C163.016 801.277 144.064 758.896 148.858 718.479C150.402 705.423 154.415 692.318 162.689 682.157C170.959 671.995 183.991 665.225 196.92 666.818C213.772 668.891 226.363 684.244 231.841 700.46C237.317 716.682 237.438 734.166 239.984 751.107C243.002 771.181 249.515 790.712 259.133 808.543C263.91 817.395 269.506 825.98 272.076 835.721C274.649 845.461 273.568 856.953 266.407 863.977C258.991 871.248 246.962 871.746 237.33 867.959C227.697 864.166 219.9 856.871 212.36 849.734C189.169 827.773 165.372 804.859 153.067 775.261C140.764 745.664 143.083 707.36 167.082 686.301" fill="#F3F6FF"/>
<mask id="mask3_0_481" style="mask-type:luminance" maskUnits="userSpaceOnUse" x="0" y="-5" width="2076" height="979">
<path fill-rule="evenodd" clip-rule="evenodd" d="M0.00256348 -3.58813L2074.92 -4.74639L2075.46 972.587L0.548131 973.745L0.00256348 -3.58813Z" fill="white"/>
</mask>
<g mask="url(#mask3_0_481)">
<path fill-rule="evenodd" clip-rule="evenodd" d="M577.167 270.226C588.036 274.616 599.384 279.357 606.795 288.504C614.207 297.651 615.93 312.649 607.303 320.638C600.332 327.087 589.54 326.769 580.373 324.428C567.974 321.269 556.337 315.101 546.716 306.594C536.671 297.714 528.554 283.007 534.949 271.174C539.772 262.252 551.34 258.917 561.251 260.718C571.159 262.519 579.821 268.348 588.163 274.04" fill="#F3F6FF"/>
<path fill-rule="evenodd" clip-rule="evenodd" d="M1032.58 -38.3682C1080.6 34.2095 1178.58 68.5595 1260.83 41.6516C1290.93 31.8077 1321.8 9.72626 1323.9 -22.1355C1325.97 -53.5365 1298.84 -79.5595 1270.27 -92.1828C1210.98 -118.389 1142.82 -107.289 1079.11 -95.7232" fill="#FBFBFB"/>
<path fill-rule="evenodd" clip-rule="evenodd" d="M22.2864 456.159C22.2917 465.668 13.4209 473.383 2.46812 473.39C-8.48189 473.396 -17.3613 465.69 -17.3666 456.182C-17.3719 446.67 -8.50112 438.955 2.4489 438.949C13.4017 438.943 22.2811 446.648 22.2864 456.159Z" fill="#F3F6FF"/>
<path fill-rule="evenodd" clip-rule="evenodd" d="M24.1585 511.079C24.1639 520.59 15.3095 562.746 4.3595 562.752C-6.59052 562.759 -15.4919 520.612 -15.4972 511.101C-15.5025 501.592 -6.62897 493.877 4.32105 493.871C15.2711 493.864 24.1532 501.57 24.1585 511.079Z" fill="#F3F6FF"/>
</g>
<path fill-rule="evenodd" clip-rule="evenodd" d="M518.752 408.389C541.615 432.362 563.078 452.565 593.197 467.053C622.735 481.257 653.836 490.86 685.904 497.195C722.33 504.391 759.282 508.207 796.242 511.241C834.315 514.367 873.152 520.802 911.322 519.024C915.789 518.818 918.558 511.952 913.804 509.754C881.919 495.022 846.395 492.215 811.999 487.8C775.267 483.084 738.321 479.357 701.862 472.734C671.659 467.25 641.585 459.721 612.611 449.466C582.477 438.795 547.619 424.869 522.604 404.5C519.927 402.32 516.266 405.782 518.752 408.389Z" fill="#F3F6FF"/>
<path fill-rule="evenodd" clip-rule="evenodd" d="M419.479 330.315C420.695 331.906 422.228 333.503 423.173 335.276C424.112 337.043 426.53 337.382 428.031 336.209C429.569 335.01 429.789 332.639 428.363 331.229C427.35 330.224 426.173 328.295 425.191 326.941C424.169 325.537 422.273 324.698 420.664 325.746C419.314 326.624 418.353 328.83 419.479 330.315Z" fill="#F3F6FF"/>
<path fill-rule="evenodd" clip-rule="evenodd" d="M447.362 353.977C448.332 357.174 449.795 360.072 452.172 362.433C453.011 363.268 453.9 364.033 454.824 364.767C457.301 366.737 459.623 367.554 462.788 367.926C466.246 368.337 469.733 365.314 470.963 362.37C472.388 358.954 471.584 355.215 469.109 352.505C467.501 350.749 465.926 350.071 463.831 349.126C465.771 349.999 462.755 348.532 462.423 348.364C461.565 347.834 460.652 347.413 459.686 347.098C458.831 346.735 458.784 346.719 459.548 347.053C458.278 346.523 457.013 346.019 455.737 345.514C450.842 343.567 445.954 349.326 447.362 353.977Z" fill="#F3F6FF"/>
<path fill-rule="evenodd" clip-rule="evenodd" d="M484.233 378.387C484.233 378.502 484.233 378.616 484.236 378.733C484.517 377.672 484.802 376.613 485.083 375.552C484.24 376.82 483.973 378.27 483.965 379.767C484.308 378.488 484.65 377.208 484.992 375.929C482.132 380.899 484.147 387.639 489.167 390.337C492.72 392.25 497.65 392.007 500.511 388.853C503.409 385.662 504.001 381.241 501.971 377.403C499.29 372.335 492.605 370.312 487.691 373.202C488.958 372.855 490.225 372.508 491.494 372.164C490.006 372.17 488.573 372.445 487.32 373.294C488.371 373.006 489.42 372.721 490.465 372.433C490.352 372.43 490.238 372.43 490.125 372.43C486.954 372.407 484.206 375.181 484.233 378.387Z" fill="#F3F6FF"/>
<path fill-rule="evenodd" clip-rule="evenodd" d="M748.556 202.606C748.636 202.676 748.716 202.746 748.799 202.818C749.516 203.376 750.233 203.937 750.953 204.495C751.802 204.855 752.646 205.215 753.493 205.577C754.436 205.705 755.38 205.83 756.32 205.958C757.787 206.013 759.153 205.705 760.42 205.032C761.322 204.777 762.102 204.316 762.765 203.648C763.565 203.173 764.2 202.53 764.673 201.723C765.331 201.052 765.787 200.265 766.038 199.351C766.704 198.072 767.011 196.692 766.952 195.215C766.941 195.114 766.93 195.014 766.916 194.916C766.909 192.953 766.421 191.127 765.446 189.435C764.488 187.802 763.201 186.504 761.585 185.539C759.905 184.56 758.095 184.063 756.153 184.059C754.673 184.001 753.29 184.318 752.01 184.997C750.674 185.436 749.52 186.185 748.547 187.247C747.212 188.602 746.291 190.197 745.783 192.038C745.27 193.965 745.271 195.889 745.786 197.813C746.297 199.653 747.219 201.25 748.556 202.606Z" fill="#FBFBFB"/>
<path fill-rule="evenodd" clip-rule="evenodd" d="M791.873 232.495C793.079 232.539 794.205 232.284 795.248 231.73C796.335 231.372 797.272 230.763 798.066 229.902C798.923 229.101 799.526 228.151 799.879 227.053C800.426 225.997 800.677 224.863 800.63 223.646C800.527 222.861 800.421 222.076 800.316 221.294C799.9 219.795 799.147 218.494 798.059 217.389C797.469 216.928 796.88 216.468 796.287 216.008C794.92 215.21 793.446 214.808 791.863 214.801C790.657 214.757 789.528 215.014 788.488 215.568C787.401 215.923 786.461 216.535 785.667 217.396C784.813 218.198 784.21 219.148 783.857 220.245C783.307 221.301 783.059 222.435 783.104 223.655C783.209 224.437 783.312 225.222 783.42 226.004C783.836 227.503 784.587 228.804 785.674 229.909C786.267 230.37 786.859 230.83 787.449 231.291C788.816 232.089 790.29 232.493 791.873 232.495Z" fill="#FBFBFB"/>
<path fill-rule="evenodd" clip-rule="evenodd" d="M818.308 246.398C818.981 246.426 819.611 246.283 820.189 245.973C820.795 245.771 821.321 245.433 821.763 244.953C822.239 244.506 822.576 243.978 822.772 243.366C823.076 242.776 823.217 242.142 823.189 241.464C823.133 241.028 823.072 240.593 823.016 240.154C822.783 239.319 822.365 238.594 821.759 237.98C821.43 237.723 821.1 237.466 820.768 237.209C820.007 236.763 819.185 236.54 818.303 236.538C817.633 236.513 817.003 236.656 816.422 236.963C815.816 237.162 815.293 237.5 814.851 237.983C814.375 238.428 814.038 238.958 813.842 239.573C813.535 240.16 813.395 240.791 813.42 241.469C813.481 241.908 813.539 242.346 813.598 242.782C813.831 243.617 814.249 244.342 814.855 244.956C815.184 245.213 815.514 245.47 815.843 245.727C816.607 246.173 817.426 246.396 818.308 246.398Z" fill="#FBFBFB"/>
<path fill-rule="evenodd" clip-rule="evenodd" d="M589.155 643.221C589.081 644.103 589.678 647.281 589.309 645.078C588.945 642.902 589.575 646.856 589.647 647.231C589.646 645.463 589.645 643.695 589.644 641.927C589.642 641.944 589.636 641.961 589.633 641.981C588.742 646.276 590.137 652.148 594.556 654.17C601.308 657.258 608.528 659.477 615.501 662.008C623.426 664.892 636.822 671.232 641.469 660.103C643.108 656.173 642.079 651.801 639.059 648.828C636.678 646.489 634.359 645.441 631.304 644.233C628.266 643.031 625.164 642.022 622.079 640.965C615.712 638.788 609.303 636.088 602.784 634.433C598.423 633.324 592.85 635.112 590.711 639.4C591.219 638.355 591.966 637.553 592.953 636.997C592.046 637.489 591.322 638.162 590.774 639.017C589.774 640.327 589.293 641.514 589.155 643.221Z" fill="#FBFBFB"/>
<path fill-rule="evenodd" clip-rule="evenodd" d="M528.398 611.85C527.586 612.912 527.332 614.278 527.366 615.601C527.628 614.613 527.896 613.618 528.161 612.63C526.317 615.225 527.243 618.375 528.533 620.915C529.273 622.372 530.671 623.452 531.922 624.424C533.178 625.406 533.048 625.241 534.891 626.008C535.074 626.083 535.251 626.156 535.436 626.226C536.125 626.479 536.723 626.566 537.475 626.666C539.775 626.977 542.148 626.75 544.2 625.503C546.474 624.117 547.916 621.656 547.915 618.955C547.909 617.587 547.568 616.311 546.886 615.127C546.219 613.991 545.322 613.084 544.193 612.409C543.233 611.694 542.026 611.455 540.939 611C541.572 611.268 542.209 611.538 542.843 611.812C541.52 611.234 540.031 610.571 538.576 610.3C538.18 610.225 537.79 610.128 537.403 610.008C536.423 609.707 535.388 609.674 534.373 609.546C534.998 609.632 535.626 609.718 536.252 609.802C536.055 609.774 535.861 609.738 535.662 609.707C535.347 609.64 535.029 609.599 534.708 609.574C534.116 609.412 533.521 609.412 532.926 609.575C532.32 609.575 531.759 609.732 531.236 610.036C530.865 610.12 530.539 610.28 530.251 610.515C531.236 610.243 532.215 609.975 533.197 609.709C533.131 609.7 533.067 609.692 533.004 609.684C533.504 609.75 534.005 609.817 534.506 609.884C533.9 609.795 533.194 609.591 532.636 609.617C532.057 609.642 531.421 609.732 530.876 609.925C530.337 610.054 529.867 610.305 529.463 610.674C529.012 610.97 528.655 611.364 528.398 611.85Z" fill="#FBFBFB"/>
<mask id="mask4_0_481" style="mask-type:luminance" maskUnits="userSpaceOnUse" x="455" y="568" width="939" height="825">
<path fill-rule="evenodd" clip-rule="evenodd" d="M455.054 569.158L1393 568.635L1393.46 1391.93L455.513 1392.45L455.054 569.158Z" fill="white"/>
</mask>
<g mask="url(#mask4_0_481)">
<path fill-rule="evenodd" clip-rule="evenodd" d="M457.001 580.56C457.366 580.858 457.729 581.157 458.097 581.456C458.271 581.601 458.446 581.743 458.623 581.882C458.717 581.963 458.811 582.042 458.908 582.117C459.16 582.326 459.417 582.527 459.677 582.72C459.929 582.926 460.187 583.127 460.45 583.32C460.834 583.548 461.241 583.741 461.637 583.956C461.853 584.07 462.066 584.19 462.282 584.302C463.289 584.815 464.399 585.225 465.552 585.165C466.103 585.093 466.65 585.017 467.201 584.941C467.848 584.787 468.429 584.516 468.946 584.128C467.563 584.31 466.18 584.495 464.797 584.677C464.965 584.711 465.129 584.747 465.297 584.78C465.577 584.839 465.834 584.867 466.139 584.905C466.971 585.017 466.739 585.025 467.569 584.91C468.23 584.882 468.85 584.681 469.422 584.312C469.757 584.052 470.094 583.789 470.429 583.526C470.437 583.518 470.445 583.512 470.451 583.504C470.603 583.353 470.608 583.317 470.827 583.029C471.031 582.764 471.081 582.727 471.189 582.546C471.197 582.532 471.203 582.521 471.211 582.507C471.377 582.104 471.545 581.708 471.711 581.305C471.772 580.859 471.83 580.415 471.89 579.968C471.829 579.524 471.771 579.074 471.71 578.63C471.699 578.599 471.69 578.566 471.679 578.532C471.554 578.102 471.314 577.62 471.12 577.209C471.039 577.036 470.956 576.86 470.873 576.687C471.056 578.083 471.237 579.479 471.42 580.876C471.581 580.515 471.658 580.133 471.647 579.728C471.832 578.895 471.792 578.06 471.535 577.228C471.454 576.932 471.341 576.645 471.191 576.377C470.936 575.587 470.504 574.908 469.89 574.333C469.743 574.166 469.593 573.996 469.444 573.831C469.131 573.479 468.832 573.105 468.506 572.77C467.869 572.117 466.939 571.545 466.183 570.968C465.79 570.669 465.4 570.368 465.007 570.069C464.249 569.581 463.43 569.316 462.55 569.28C461.67 569.08 460.79 569.119 459.911 569.399C459.385 569.625 458.86 569.849 458.331 570.073C457.563 570.492 456.943 571.065 456.476 571.794C456.07 572.21 455.785 572.699 455.627 573.266C455.213 574.065 455.025 574.92 455.062 575.839C455.14 576.431 455.217 577.022 455.298 577.614C455.611 578.743 456.179 579.728 457.001 580.56Z" fill="#FBFBFB"/>
</g>
<path fill-rule="evenodd" clip-rule="evenodd" d="M219.053 53.3316C228.533 61.3187 225.754 78.5505 215.322 85.2167C204.89 91.8828 190.317 88.8889 181.138 80.5498C171.963 72.2107 167.488 59.6884 165.945 47.3209C164.903 38.9605 165.313 29.6805 170.707 23.2517C179.51 12.7551 197.447 15.8141 206.831 25.7812C216.221 35.7511 219.314 49.9943 222.03 63.4726" fill="#FBFBFB"/>
<path fill-rule="evenodd" clip-rule="evenodd" d="M1081.35 530.533C1089.52 533.438 1099.18 540.222 1096.39 548.498C1094.71 553.494 1089.16 555.849 1084.17 557.416C1061.73 564.451 1038.06 567.436 1014.59 566.352C1003 565.816 991.445 564.29 980.111 561.769C970.112 559.546 957.34 557.35 949.866 549.655C939.685 539.171 942.89 521.693 957.39 518.717C972.453 515.623 988.799 519.263 1004.05 519.006C1030.48 518.562 1056.3 521.625 1081.35 530.533Z" fill="#FBFBFB"/>
</g>
<defs>
<clipPath id="clip0_0_481">
<rect width="1444" height="676" fill="white"/>
</clipPath>
</defs>
</svg>
