<svg width="76" height="291" viewBox="0 0 76 291" fill="none" xmlns="http://www.w3.org/2000/svg">
<g opacity="0.1">
<g clip-path="url(#clip0_0_835)">
<rect x="-197.935" y="0.0761719" width="272.961" height="290.844" rx="39.5147" fill="#B0CAE8"/>
<path d="M-210.473 349.876C-238.23 328.429 -259.441 304.331 -274.106 277.582C-288.058 250.741 -294.586 223.854 -293.691 196.921C-292.486 169.586 -283.226 144.298 -265.911 121.058L-207.381 166.282C-220.6 187.548 -225.454 210.458 -221.942 235.014C-217.718 259.478 -201.928 282.278 -174.574 303.414C-148.426 323.617 -122.938 333.033 -98.1075 331.66C-72.5643 330.197 -51.8668 319.207 -36.015 298.691C-23.5822 282.601 -17.9056 266.108 -18.985 249.213C-20.0644 232.318 -25.2212 216.128 -34.4554 200.641C-43.6896 185.155 -57.2391 165.692 -75.1038 142.252C-97.2656 113.564 -113.997 89.0731 -125.297 68.7779C-136.195 48.7935 -141.773 26.4959 -142.03 1.88512C-141.574 -22.8171 -131.244 -48.2419 -111.041 -74.3893C-93.3242 -97.3186 -71.7949 -113.126 -46.4531 -121.812C-21.1113 -130.498 5.74841 -131.587 34.126 -125.079C62.9059 -118.26 90.9729 -104.283 118.327 -83.1472C157.749 -52.6869 182.316 -17.9658 192.026 21.0162C202.139 60.3089 196.216 97.4904 174.258 132.561L113.918 85.9378C124.339 68.293 126.77 47.6864 121.211 24.118C115.963 0.147423 101.069 -21.3179 76.5307 -40.2778C53.6014 -57.9945 30.2337 -66.4136 6.42746 -65.5351C-17.068 -65.0587 -37.0524 -54.1605 -53.5258 -32.8403C-65.3369 -17.5541 -70.7485 -1.82018 -69.7605 14.3615C-68.3703 30.8539 -63.4603 46.5326 -55.0307 61.3975C-45.8879 76.1709 -32.3384 95.6341 -14.3823 119.787C7.46867 148.877 23.889 173.77 34.8787 194.468C46.1792 214.763 51.8025 237.417 51.7486 262.43C52.0055 287.041 41.877 312.621 21.3629 339.171C5.51115 359.686 -14.8388 374.799 -39.6869 384.509C-64.535 394.219 -91.9706 396.469 -121.994 391.259C-152.017 386.049 -181.51 372.255 -210.473 349.876Z" fill="white"/>
</g>
</g>
<g opacity="0.1">
<g clip-path="url(#clip1_0_835)">
<rect x="-212.996" y="0.0761719" width="272.961" height="290.844" rx="39.5147" fill="#B0CAE8"/>
<path d="M-225.533 349.876C-253.29 328.429 -274.501 304.331 -289.166 277.582C-303.118 250.741 -309.646 223.854 -308.751 196.921C-307.546 169.586 -298.285 144.298 -280.971 121.058L-222.441 166.282C-235.66 187.548 -240.513 210.458 -237.002 235.014C-232.777 259.478 -216.988 282.278 -189.634 303.414C-163.486 323.617 -137.997 333.033 -113.167 331.66C-87.6241 330.197 -66.9266 319.207 -51.0748 298.691C-38.6421 282.601 -32.9654 266.108 -34.0448 249.213C-35.1242 232.318 -40.281 216.128 -49.5152 200.641C-58.7494 185.155 -72.2989 165.692 -90.1636 142.252C-112.325 113.564 -129.057 89.0731 -140.357 68.7779C-151.255 48.7935 -156.833 26.4959 -157.09 1.88512C-156.634 -22.8171 -146.304 -48.2419 -126.101 -74.3893C-108.384 -97.3186 -86.8547 -113.126 -61.5129 -121.812C-36.1711 -130.498 -9.3114 -131.587 19.0662 -125.079C47.8461 -118.26 75.9131 -104.283 103.267 -83.1472C142.69 -52.6869 167.256 -17.9658 176.967 21.0162C187.079 60.3089 181.157 97.4904 159.198 132.561L98.8581 85.9378C109.28 68.293 111.711 47.6864 106.151 24.118C100.903 0.147423 86.0093 -21.3179 61.4709 -40.2778C38.5416 -57.9945 15.1739 -66.4136 -8.63236 -65.5351C-32.1278 -65.0587 -52.1122 -54.1605 -68.5856 -32.8403C-80.3967 -17.5541 -85.8083 -1.82018 -84.8203 14.3615C-83.4301 30.8539 -78.5201 46.5326 -70.0905 61.3975C-60.9477 76.1709 -47.3982 95.6341 -29.4421 119.787C-7.59114 148.877 8.82918 173.77 19.8189 194.468C31.1194 214.763 36.7427 237.417 36.6888 262.43C36.9457 287.041 26.8172 312.621 6.30311 339.171C-9.54867 359.686 -29.8986 374.799 -54.7467 384.509C-79.5948 394.219 -107.03 396.469 -137.054 391.259C-167.077 386.049 -196.57 372.255 -225.533 349.876Z" fill="white"/>
</g>
</g>
<g opacity="0.1">
<g clip-path="url(#clip2_0_835)">
<rect x="-223.349" y="0.0761719" width="272.961" height="290.844" rx="39.5147" fill="#B0CAE8"/>
<path d="M-235.887 349.876C-263.644 328.429 -284.854 304.331 -299.519 277.582C-313.471 250.741 -320 223.854 -319.105 196.921C-317.899 169.586 -308.639 144.298 -291.325 121.058L-232.795 166.282C-246.014 187.548 -250.867 210.458 -247.356 235.014C-243.131 259.478 -227.342 282.278 -199.987 303.414C-173.84 323.617 -148.351 333.033 -123.521 331.66C-97.9779 330.197 -77.2804 319.207 -61.4286 298.691C-48.9958 282.601 -43.3191 266.108 -44.3986 249.213C-45.478 232.318 -50.6348 216.128 -59.869 200.641C-69.1032 185.155 -82.6527 165.692 -100.517 142.252C-122.679 113.564 -139.41 89.0731 -150.711 68.7779C-161.609 48.7935 -167.187 26.4959 -167.444 1.88512C-166.987 -22.8171 -156.658 -48.2419 -136.454 -74.3893C-118.738 -97.3186 -97.2085 -113.126 -71.8667 -121.812C-46.5249 -130.498 -19.6652 -131.587 8.71244 -125.079C37.4923 -118.26 65.5594 -104.283 92.9136 -83.1472C132.336 -52.6869 156.902 -17.9658 166.613 21.0162C176.726 60.3089 170.803 97.4904 148.845 132.561L88.5043 85.9378C98.9258 68.293 101.357 47.6864 95.7975 24.118C90.5489 0.147423 75.6555 -21.3179 51.1171 -40.2778C28.1879 -57.9945 4.8201 -66.4136 -18.9861 -65.5351C-42.4815 -65.0587 -62.4659 -54.1605 -78.9394 -32.8403C-90.7505 -17.5541 -96.1621 -1.82018 -95.1741 14.3615C-93.7839 30.8539 -88.8739 46.5326 -80.4442 61.3975C-71.3015 76.1709 -57.752 95.6341 -39.7958 119.787C-17.9449 148.877 -1.52458 173.77 9.46513 194.468C20.7656 214.763 26.3889 237.417 26.335 262.43C26.592 287.041 16.4634 312.621 -4.05065 339.171C-19.9024 359.686 -40.2524 374.799 -65.1005 384.509C-89.9486 394.219 -117.384 396.469 -147.407 391.259C-177.43 386.049 -206.924 372.255 -235.887 349.876Z" fill="white"/>
</g>
</g>
<defs>
<clipPath id="clip0_0_835">
<rect x="-197.935" y="0.0761719" width="272.961" height="290.844" rx="39.5147" fill="white"/>
</clipPath>
<clipPath id="clip1_0_835">
<rect x="-212.996" y="0.0761719" width="272.961" height="290.844" rx="39.5147" fill="white"/>
</clipPath>
<clipPath id="clip2_0_835">
<rect x="-223.349" y="0.0761719" width="272.961" height="290.844" rx="39.5147" fill="white"/>
</clipPath>
</defs>
</svg>
