<svg width="84" height="291" viewBox="0 0 84 291" fill="none" xmlns="http://www.w3.org/2000/svg">
<g opacity="0.1">
<g clip-path="url(#clip0_0_842)">
<rect x="26.3877" y="0.0761719" width="272.961" height="290.844" rx="39.5147" fill="#B0CAE8"/>
<path d="M13.8493 349.876C-13.9072 328.429 -35.118 304.331 -49.7831 277.582C-63.7351 250.741 -70.2636 223.854 -69.3687 196.921C-68.163 169.586 -58.9029 144.298 -41.5885 121.058L16.9415 166.282C3.72275 187.548 -1.13089 210.458 2.38065 235.014C6.60527 259.478 22.3947 282.278 49.7489 303.414C75.8964 323.617 101.385 333.033 126.215 331.66C151.759 330.197 172.456 319.207 188.308 298.691C200.741 282.601 206.417 266.108 205.338 249.213C204.258 232.318 199.102 216.128 189.867 200.641C180.633 185.155 167.084 165.692 149.219 142.252C127.057 113.564 110.326 89.0731 99.0255 68.7779C88.1273 48.7935 82.5497 26.4959 82.2928 1.88512C82.749 -22.8171 93.0787 -48.2419 113.282 -74.3893C130.999 -97.3186 152.528 -113.126 177.87 -121.812C203.211 -130.498 230.071 -131.587 258.449 -125.079C287.229 -118.26 315.296 -104.283 342.65 -83.1472C382.072 -52.6869 406.639 -17.9658 416.349 21.0162C426.462 60.3089 420.539 97.4904 398.581 132.561L338.241 85.9378C348.662 68.293 351.093 47.6864 345.534 24.118C340.285 0.147423 325.392 -21.3179 300.854 -40.2778C277.924 -57.9945 254.556 -66.4136 230.75 -65.5351C207.255 -65.0587 187.27 -54.1605 170.797 -32.8403C158.986 -17.5541 153.574 -1.82018 154.562 14.3615C155.953 30.8539 160.862 46.5326 169.292 61.3975C178.435 76.1709 191.984 95.6341 209.941 119.787C231.791 148.877 248.212 173.77 259.201 194.468C270.502 214.763 276.125 237.417 276.071 262.43C276.328 287.041 266.2 312.621 245.686 339.171C229.834 359.686 209.484 374.799 184.636 384.509C159.788 394.219 132.352 396.469 102.329 391.259C72.3059 386.049 42.8126 372.255 13.8493 349.876Z" fill="white"/>
</g>
</g>
<g opacity="0.1">
<g clip-path="url(#clip1_0_842)">
<rect x="11.3271" y="0.0761719" width="272.961" height="290.844" rx="39.5147" fill="#B0CAE8"/>
<path d="M-1.21058 349.876C-28.9671 328.429 -50.1779 304.331 -64.843 277.582C-78.795 250.741 -85.3235 223.854 -84.4286 196.921C-83.2229 169.586 -73.9628 144.298 -56.6484 121.058L1.88163 166.282C-11.3372 187.548 -16.1908 210.458 -12.6793 235.014C-8.45464 259.478 7.33479 282.278 34.689 303.414C60.8365 323.617 86.3252 333.033 111.155 331.66C136.699 330.197 157.396 319.207 173.248 298.691C185.681 282.601 191.357 266.108 190.278 249.213C189.198 232.318 184.042 216.128 174.807 200.641C165.573 185.155 152.024 165.692 134.159 142.252C111.997 113.564 95.2662 89.0731 83.9656 68.7779C73.0674 48.7935 67.4898 26.4959 67.2329 1.88512C67.689 -22.8171 78.0188 -48.2419 98.222 -74.3893C115.939 -97.3186 137.468 -113.126 162.81 -121.812C188.152 -130.498 215.011 -131.587 243.389 -125.079C272.169 -118.26 300.236 -104.283 327.59 -83.1472C367.012 -52.6869 391.579 -17.9658 401.289 21.0162C411.402 60.3089 405.479 97.4904 383.521 132.561L323.181 85.9378C333.602 68.293 336.033 47.6864 330.474 24.118C325.225 0.147423 310.332 -21.3179 285.794 -40.2778C262.864 -57.9945 239.497 -66.4136 215.69 -65.5351C192.195 -65.0587 172.211 -54.1605 155.737 -32.8403C143.926 -17.5541 138.514 -1.82018 139.502 14.3615C140.893 30.8539 145.803 46.5326 154.232 61.3975C163.375 76.1709 176.924 95.6341 194.881 119.787C216.732 148.877 233.152 173.77 244.142 194.468C255.442 214.763 261.065 237.417 261.011 262.43C261.268 287.041 251.14 312.621 230.626 339.171C214.774 359.686 194.424 374.799 169.576 384.509C144.728 394.219 117.292 396.469 87.2691 391.259C57.246 386.049 27.7527 372.255 -1.21058 349.876Z" fill="white"/>
</g>
</g>
<g opacity="0.1">
<g clip-path="url(#clip2_0_842)">
<rect x="0.973633" y="0.0761719" width="272.961" height="290.844" rx="39.5147" fill="#B0CAE8"/>
<path d="M-11.5643 349.876C-39.3208 328.429 -60.5316 304.331 -75.1966 277.582C-89.1487 250.741 -95.6772 223.854 -94.7823 196.921C-93.5766 169.586 -84.3165 144.298 -67.0021 121.058L-8.47205 166.282C-21.6908 187.548 -26.5445 210.458 -23.0329 235.014C-18.8083 259.478 -3.01889 282.278 24.3353 303.414C50.4828 323.617 75.9716 333.033 100.802 331.66C126.345 330.197 147.042 319.207 162.894 298.691C175.327 282.601 181.004 266.108 179.924 249.213C178.845 232.318 173.688 216.128 164.454 200.641C155.22 185.155 141.67 165.692 123.805 142.252C101.644 113.564 84.9125 89.0731 73.612 68.7779C62.7137 48.7935 57.1361 26.4959 56.8792 1.88512C57.3354 -22.8171 67.6651 -48.2419 87.8683 -74.3893C105.585 -97.3186 127.114 -113.126 152.456 -121.812C177.798 -130.498 204.658 -131.587 233.035 -125.079C261.815 -118.26 289.882 -104.283 317.236 -83.1472C356.659 -52.6869 381.225 -17.9658 390.936 21.0162C401.048 60.3089 395.126 97.4904 373.167 132.561L312.827 85.9378C323.249 68.293 325.68 47.6864 320.12 24.118C314.872 0.147423 299.978 -21.3179 275.44 -40.2778C252.511 -57.9945 229.143 -66.4136 205.337 -65.5351C181.841 -65.0587 161.857 -54.1605 145.383 -32.8403C133.572 -17.5541 128.161 -1.82018 129.149 14.3615C130.539 30.8539 135.449 46.5326 143.879 61.3975C153.021 76.1709 166.571 95.6341 184.527 119.787C206.378 148.877 222.798 173.77 233.788 194.468C245.088 214.763 250.712 237.417 250.658 262.43C250.915 287.041 240.786 312.621 220.272 339.171C204.42 359.686 184.07 374.799 159.222 384.509C134.374 394.219 106.939 396.469 76.9154 391.259C46.8923 386.049 17.399 372.255 -11.5643 349.876Z" fill="white"/>
</g>
</g>
<defs>
<clipPath id="clip0_0_842">
<rect x="26.3877" y="0.0761719" width="272.961" height="290.844" rx="39.5147" fill="white"/>
</clipPath>
<clipPath id="clip1_0_842">
<rect x="11.3271" y="0.0761719" width="272.961" height="290.844" rx="39.5147" fill="white"/>
</clipPath>
<clipPath id="clip2_0_842">
<rect x="0.973633" y="0.0761719" width="272.961" height="290.844" rx="39.5147" fill="white"/>
</clipPath>
</defs>
</svg>
